<svg width="64" height="55" viewBox="0 0 64 55" fill="none" xmlns="http://www.w3.org/2000/svg">
<path d="M58.9219 31.845C58.9739 31.2618 58.9999 30.6728 58.9999 30.0782C58.9995 24.8148 56.9169 19.708 53.0938 15.596C49.2707 11.4839 43.9344 8.61113 37.9609 7.4491" stroke="#3C3939" stroke-width="2" stroke-miterlimit="10" stroke-linecap="square"/>
<path d="M32 12.0312C35.3137 12.0312 38 9.72272 38 6.875C38 4.02728 35.3137 1.71875 32 1.71875C28.6863 1.71875 26 4.02728 26 6.875C26 9.72272 28.6863 12.0312 32 12.0312Z" stroke="#3C3939" stroke-width="2" stroke-miterlimit="10" stroke-linecap="square"/>
<path d="M20.314 9.18237C14.4786 11.5903 9.84414 15.7197 7.25494 20.8182C4.66575 25.9167 4.29419 31.6449 6.20796 36.9591" stroke="#3C3939" stroke-width="2" stroke-miterlimit="10" stroke-linecap="square"/>
<path d="M32 12.0312C35.3137 12.0312 38 9.72272 38 6.875C38 4.02728 35.3137 1.71875 32 1.71875C28.6863 1.71875 26 4.02728 26 6.875C26 9.72272 28.6863 12.0312 32 12.0312Z" stroke="#3C3939" stroke-width="2" stroke-miterlimit="10" stroke-linecap="square"/>
<path d="M16.7778 49.2319C22.1217 52.3744 28.6029 53.7597 35.0372 53.1346C41.4715 52.5094 47.4293 49.9156 51.8218 45.827" stroke="#3C3939" stroke-width="2" stroke-miterlimit="10" stroke-linecap="square"/>
<path d="M8.61694 46.8359C11.9307 46.8359 14.6169 44.5274 14.6169 41.6797C14.6169 38.832 11.9307 36.5234 8.61694 36.5234C5.30323 36.5234 2.61694 38.832 2.61694 41.6797C2.61694 44.5274 5.30323 46.8359 8.61694 46.8359Z" stroke="#3C3939" stroke-width="2" stroke-miterlimit="10" stroke-linecap="square"/>
<path d="M55.3831 46.8359C58.6968 46.8359 61.3831 44.5274 61.3831 41.6797C61.3831 38.832 58.6968 36.5234 55.3831 36.5234C52.0693 36.5234 49.3831 38.832 49.3831 41.6797C49.3831 44.5274 52.0693 46.8359 55.3831 46.8359Z" stroke="#3C3939" stroke-width="2" stroke-miterlimit="10" stroke-linecap="square"/>
</svg>
